<?xml version="1.0" standalone="no"?><!DOCTYPE svg PUBLIC "-//W3C//DTD SVG 1.1//EN" "http://www.w3.org/Graphics/SVG/1.1/DTD/svg11.dtd"><svg t="1596597909717" class="icon" viewBox="0 0 1024 1024" version="1.1" xmlns="http://www.w3.org/2000/svg" p-id="831" xmlns:xlink="http://www.w3.org/1999/xlink" width="200" height="200"><defs><style type="text/css"></style></defs><path d="M632.27733333 991.2512H383.09653333a7.05493333 7.05493333 0 0 1-7.0528-7.05066667 7.05066667 7.05066667 0 0 1 7.0528-7.0464h249.17866667a7.05066667 7.05066667 0 0 1 7.0528 7.0464 7.0528 7.0528 0 0 1-7.0528 7.05066667zM607.63733333 129.3376c-8.01173333 0-15.25866667-5.49653333-17.14986666-13.63413333l-13.99253334-60.07466667c-2.208-9.48266667 3.68853333-18.95466667 13.16586667-21.16266667 9.48266667-2.208 18.95573333 3.68746667 21.16373333 13.16586667l13.99146667 60.08c2.208 9.48266667-3.68426667 18.95466667-13.16586667 21.16266667a17.86666667 17.86666667 0 0 1-4.0128 0.46293333z m196.17066667 154.93333333c-1.16053333 0-2.33386667-0.11093333-3.51146667-0.352l-60.46506666-12.21013333c-9.5392-1.92533333-15.712-11.2224-13.7888-20.7648 1.93066667-9.5424 11.22666667-15.712 20.768-13.78666667l60.4672 12.20906667c9.53706667 1.92533333 15.712 11.22666667 13.78666666 20.76586667-1.69386667 8.36693333-9.04106667 14.13973333-17.25653333 14.13973333zM707.424 163.104c-5.07626667 0-10.11306667-2.17813333-13.59893333-6.39573333-6.19626667-7.50613333-5.1392-18.6176 2.36266666-24.81493334l51.8496-42.83626666c7.50506667-6.20266667 18.6112-5.14346667 24.81386667 2.3616 6.20266667 7.50186667 5.1392 18.6112-2.3616 24.81493333l-51.8496 42.8352a17.5616 17.5616 0 0 1-11.216 4.0352z m170.25066667 778.56533333H461.99146667l291.3728-105.61066666c18.05013333-6.5408 32.47253333-19.72053333 40.6144-37.11146667 8.1376-17.392 9.01333333-36.912 2.47253333-54.96426667l-18.89066667-52.10666666c-2.31893333-6.40533333-9.39733333-9.71733333-15.80053333-7.39306667-6.4064 2.31893333-9.71733333 9.39733333-7.39413333 15.80053333l18.88426666 52.1056c4.29546667 11.85706667 3.7216 24.67413333-1.6224 36.10026667-5.344 11.41973333-14.81813333 20.0768-26.6752 24.37226667L417.05493333 931.7152c-11.86346667 4.2944-24.68053333 3.71946667-36.10133333-1.62453333-11.4208-5.34826667-20.07786667-14.816-24.37333333-26.6752L175.4048 403.56373333c-8.86933333-24.46933333 3.82293333-51.6 28.29866667-60.46933333l327.89973333-118.85653333c11.85706667-4.29546667 24.67413333-3.71626667 36.0992 1.62773333 11.4208 5.344 20.07786667 14.81813333 24.37013333 26.656l74.00533334 204.896c2.31466667 6.41066667 9.38346667 9.728 15.79733333 7.41333333 6.40533333-2.31466667 9.7216-9.38453333 7.40693333-15.79093333L615.2704 244.128c-6.54186667-18.05013333-19.72053333-32.47253333-37.11146667-40.6144-17.39306667-8.1376-36.91306667-9.01333333-54.9632-2.47253333l-327.904 118.85226666c-37.26613333 13.50933333-56.592 54.81493333-43.08693333 92.07893334l181.17653333 499.8496c8.8128 24.31253333 29.45173333 40.97493333 53.0848 45.88373333a8.65493333 8.65493333 0 0 0 4.736 1.40586667h6.1792c1.216 0.05973333 2.43093333 0.10666667 3.65546667 0.10666666 1.22026667 0 2.44053333-0.0416 3.66506667-0.10666666h472.97493333c4.8192 0 8.72106667-3.90613333 8.72106667-8.72213334s-3.904-8.72106667-8.72213334-8.72106666z m-85.59466667-527.8528L772.91733333 403.41333333c-7.65333333-4.14613333-18.6112 1.25333333-24.48426666 12.07146667L588.93973333 709.45493333c-0.7104 1.3088-1.07733333 2.752-1.02933333 4.07786667l1.0432 32.5248c-0.496 0.032-0.99306667 0.13333333-1.47946667 0.32l-49.54453333 18.46293333a5.2864 5.2864 0 1 0 3.69173333 9.90933334l47.6864-17.7728 0.0128 0.37973333c0.11733333 3.58613333 3.0656 5.18613333 6.13226667 3.32586667l37.50613333-22.70826667c1.136-0.68693333 2.14826667-1.77706667 2.85866667-3.08586667l159.49226667-293.97333333c5.8688-10.81173333 4.4256-22.94826667-3.2288-27.09866667z m-356.544 389.19466667l-36.36053333 13.54986667a5.28426667 5.28426667 0 0 0-3.1072 6.8 5.28746667 5.28746667 0 0 0 6.8 3.10826666l36.35946666-13.55093333a5.2864 5.2864 0 0 0 3.10933334-6.8 5.28 5.28 0 0 0-6.80213334-3.1072z m75.968-28.32213333l-49.54453333 18.46826666a5.28533333 5.28533333 0 0 0-3.10826667 6.8 5.28746667 5.28746667 0 0 0 6.8 3.10826667l49.54453333-18.46613333a5.2832 5.2832 0 0 0 3.10826667-6.80213334 5.2832 5.2832 0 0 0-6.80106667-3.10826666z m-145.8272-81.7248a5.29066667 5.29066667 0 0 1-4.96-3.4432 5.29066667 5.29066667 0 0 1 3.1072-6.8l31.0912-11.58826667a5.28746667 5.28746667 0 0 1 3.6928 9.90826667l-31.09013333 11.58826666a5.22666667 5.22666667 0 0 1-1.84106667 0.33493334z m57.5104-21.43786667c-2.144 0-4.16106667-1.3184-4.95466667-3.44746667a5.2864 5.2864 0 0 1 3.1072-6.80106666l49.54453334-18.46826667a5.2864 5.2864 0 0 1 6.8 3.1072 5.2832 5.2832 0 0 1-3.1072 6.80213333l-49.54453334 18.46826667a5.2416 5.2416 0 0 1-1.84533333 0.3392z m75.96693333-28.31573333a5.29386667 5.29386667 0 0 1-4.9536-3.44213334 5.2832 5.2832 0 0 1 3.1072-6.80106666l49.54453334-18.4736a5.2864 5.2864 0 0 1 6.8 3.10826666 5.2832 5.2832 0 0 1-3.1072 6.80106667l-49.5456 18.46826667a5.2768 5.2768 0 0 1-1.84533334 0.3392z m75.968-28.32213334a5.28746667 5.28746667 0 0 1-1.84533333-10.2432l49.54346667-18.4672a5.28533333 5.28533333 0 0 1 6.80106666 3.1072 5.28426667 5.28426667 0 0 1-3.1072 6.8l-49.54453333 18.46933334a5.2832 5.2832 0 0 1-1.8464 0.33386666z m0 0" p-id="832"></path></svg>